<svg width="24" height="13" viewBox="0 0 24 13" fill="none" xmlns="http://www.w3.org/2000/svg">
  <path d="M5.69853 2.45115C8.37744 2.45115 10.4787 4.43158 10.4788 6.79099C10.4788 9.15051 8.37753 11.1308 5.69853 11.1308C3.01967 11.1307 0.918259 9.15043 0.918259 6.79099C0.9184 4.43166 3.01976 2.45128 5.69853 2.45115Z" fill="#9FD5FF" stroke="#1E1E1E" stroke-width="0.922492" />
  <path d="M17.1285 1.29701C20.2154 1.2972 22.6528 3.66819 22.6529 6.51479C22.6529 9.36146 20.2155 11.7324 17.1285 11.7326C14.0414 11.7326 11.6031 9.36157 11.6031 6.51479C11.6032 3.66808 14.0414 1.29701 17.1285 1.29701Z" fill="#9FD5FF" stroke="#1E1E1E" stroke-width="1.49634" />
  <circle cx="7.66906" cy="7.08193" r="1.93883" fill="#1E1E1E" />
  <circle cx="14.7815" cy="7.2156" r="1.93883" fill="#1E1E1E" />
</svg>